<svg width="34" height="34" viewBox="0 0 34 34" fill="none" xmlns="http://www.w3.org/2000/svg">
<path d="M34 17C34 7.61116 26.3888 0 17 0C7.61116 0 0 7.61116 0 17C0 26.3888 7.61116 34 17 34C26.3888 34 34 26.3888 34 17Z" fill="#1F1F1F"/>
<path d="M25.5 12H8.5C7.67157 12 7 12.6716 7 13.5C7 14.3284 7.67157 15 8.5 15H25.5C26.3284 15 27 14.3284 27 13.5C27 12.6716 26.3284 12 25.5 12Z" fill="white"/>
<path d="M25.5 19H8.5C7.67157 19 7 19.6716 7 20.5C7 21.3284 7.67157 22 8.5 22H25.5C26.3284 22 27 21.3284 27 20.5C27 19.6716 26.3284 19 25.5 19Z" fill="white"/>
</svg>
