<svg width="34" height="34" viewBox="0 0 34 34" fill="none" xmlns="http://www.w3.org/2000/svg">
<path d="M0 17C0 7.61116 7.61116 0 17 0C26.3888 0 34 7.61116 34 17C34 26.3888 26.3888 34 17 34C7.61116 34 0 26.3888 0 17Z" fill="#F4F4F4"/>
<path d="M7 20.5C7 19.6716 7.67157 19 8.5 19H25.5C26.3284 19 27 19.6716 27 20.5C27 21.3284 26.3284 22 25.5 22H8.5C7.67157 22 7 21.3284 7 20.5Z" fill="#262626"/>
<path d="M7 13.5C7 12.6716 7.67157 12 8.5 12H25.5C26.3284 12 27 12.6716 27 13.5C27 14.3284 26.3284 15 25.5 15H8.5C7.67157 15 7 14.3284 7 13.5Z" fill="#262626"/>
</svg>
